<svg width="18" height="18" viewBox="0 0 18 18" fill="none" xmlns="http://www.w3.org/2000/svg">
<path d="M13 2.77778V1M5 2.77778V1M1.22222 5.44444H16.7778M1 7.26133C1 5.38133 1 4.44089 1.38756 3.72267C1.738 3.08205 2.28177 2.56845 2.94133 2.25511C3.70222 1.88889 4.69778 1.88889 6.68889 1.88889H11.3111C13.3022 1.88889 14.2978 1.88889 15.0587 2.25511C15.728 2.57689 16.2711 3.09067 16.6124 3.72178C17 4.44178 17 5.38222 17 7.26222V11.6284C17 13.5084 17 14.4489 16.6124 15.1671C16.262 15.8077 15.7182 16.3213 15.0587 16.6347C14.2978 17 13.3022 17 11.3111 17H6.68889C4.69778 17 3.70222 17 2.94133 16.6338C2.28191 16.3207 1.73814 15.8074 1.38756 15.1671C1 14.4471 1 13.5067 1 11.6267V7.26133Z" stroke="#E2E8F0" stroke-linecap="round" stroke-linejoin="round"/>
</svg>
