<svg width="21" height="16" viewBox="0 0 21 16" fill="none" xmlns="http://www.w3.org/2000/svg">
<path d="M7.18194 12.5078L18.6913 0.427617C18.9629 0.142539 19.2798 0 19.642 0C20.0041 0 20.321 0.142539 20.5926 0.427617C20.8642 0.712695 21 1.05146 21 1.44392C21 1.83638 20.8642 2.17467 20.5926 2.4588L8.13257 15.5724C7.86096 15.8575 7.54409 16 7.18194 16C6.8198 16 6.50292 15.8575 6.23131 15.5724L0.391742 9.44321C0.120134 9.15813 -0.0102375 8.81984 0.000626787 8.42833C0.0114911 8.03682 0.15318 7.69806 0.425693 7.41203C0.698206 7.126 1.02097 6.98346 1.39398 6.98441C1.76698 6.98536 2.08929 7.1279 2.3609 7.41203L7.18194 12.5078Z" fill="#020618"/>
</svg>
