<svg width="18" height="18" viewBox="0 0 18 18" fill="none" xmlns="http://www.w3.org/2000/svg">
<path d="M8.99999 9.94399L2.00533 16.9387C1.88088 17.0631 1.72799 17.1298 1.54666 17.1387C1.36532 17.1475 1.20355 17.0809 1.06133 16.9387C0.919103 16.7964 0.847992 16.6391 0.847992 16.4667C0.847992 16.2942 0.919103 16.1369 1.06133 15.9947L8.05599 8.99999L1.06133 2.00533C0.936881 1.88088 0.870214 1.72799 0.861325 1.54666C0.852436 1.36532 0.919103 1.20355 1.06133 1.06133C1.20355 0.919103 1.36088 0.847992 1.53333 0.847992C1.70577 0.847992 1.8631 0.919103 2.00533 1.06133L8.99999 8.05599L15.9947 1.06133C16.1191 0.936881 16.2724 0.870214 16.4547 0.861325C16.6351 0.852436 16.7964 0.919103 16.9387 1.06133C17.0809 1.20355 17.152 1.36088 17.152 1.53333C17.152 1.70577 17.0809 1.8631 16.9387 2.00533L9.94399 8.99999L16.9387 15.9947C17.0631 16.1191 17.1298 16.2724 17.1387 16.4547C17.1475 16.6351 17.0809 16.7964 16.9387 16.9387C16.7964 17.0809 16.6391 17.152 16.4667 17.152C16.2942 17.152 16.1369 17.0809 15.9947 16.9387L8.99999 9.94399Z" fill="white"/>
</svg>
