<svg width="16" height="17" viewBox="0 0 16 17" fill="none" xmlns="http://www.w3.org/2000/svg">
<path d="M5.95164 2.37715L1.13297 7.21021C0.877456 7.46657 0.733917 7.81421 0.733917 8.17669C0.733917 8.53917 0.877456 8.88681 1.13297 9.14316L4.98736 13.0098C5.11394 13.1369 5.26426 13.2377 5.42972 13.3065C5.59518 13.3753 5.77253 13.4107 5.95164 13.4107C6.13075 13.4107 6.30811 13.3753 6.47357 13.3065C6.63903 13.2377 6.78934 13.1369 6.91592 13.0098L11.7339 8.17669L5.95164 2.37715ZM5.95164 2.37715L4.98804 1.41068" stroke="white" stroke-linecap="round" stroke-linejoin="round"/>
<path d="M12.7339 10.4107C12.7339 10.4107 14.7339 12.6876 14.7339 14.1284C14.7339 15.3875 13.8373 16.4107 12.7339 16.4107C11.6306 16.4107 10.7419 15.3875 10.7339 14.1284C10.7406 12.6868 12.7339 10.4107 12.7339 10.4107Z" stroke="white" stroke-miterlimit="1.5" stroke-linecap="round" stroke-linejoin="round"/>
</svg>
