<svg width="26" height="26" viewBox="0 0 26 26" fill="none" xmlns="http://www.w3.org/2000/svg">
<path fill-rule="evenodd" clip-rule="evenodd" d="M25.6067 4.22133C25.7334 4.41361 25.7898 4.64371 25.7665 4.87278C25.7432 5.10186 25.6415 5.31586 25.4787 5.47867L13.2213 17.7347C13.096 17.86 12.9395 17.9497 12.768 17.9947L7.66268 19.328C7.49392 19.372 7.31658 19.3711 7.14827 19.3254C6.97996 19.2797 6.82653 19.1908 6.7032 19.0675C6.57988 18.9442 6.49095 18.7907 6.44525 18.6224C6.39955 18.4541 6.39866 18.2768 6.44268 18.108L7.77601 13.004C7.81588 12.8511 7.8892 12.7091 7.99068 12.588L20.2933 0.293333C20.4808 0.106065 20.735 0.000879288 21 0.000879288C21.265 0.000879288 21.5192 0.106065 21.7067 0.293333L25.4787 4.064C25.5253 4.11312 25.5681 4.16571 25.6067 4.22133ZM23.3573 4.77067L21 2.41467L9.64268 13.772L8.80935 16.9627L12 16.1293L23.3573 4.77067Z" fill="white"/>
<path d="M23.188 19.88C23.5524 16.7653 23.6688 13.6265 23.536 10.4933C23.5329 10.4195 23.5451 10.3458 23.572 10.2769C23.5988 10.2081 23.6397 10.1456 23.692 10.0933L25.004 8.78133C25.0399 8.74528 25.0853 8.72034 25.135 8.70953C25.1847 8.69871 25.2365 8.70247 25.2841 8.72035C25.3317 8.73823 25.3731 8.76948 25.4033 8.81034C25.4336 8.8512 25.4514 8.89992 25.4547 8.95067C25.7009 12.6723 25.6072 16.4087 25.1747 20.1133C24.86 22.8093 22.6947 24.9227 20.0107 25.2227C15.3511 25.7383 10.6489 25.7383 5.98933 25.2227C3.30666 24.9227 1.14 22.8093 0.825331 20.1133C0.273474 15.3872 0.273474 10.6128 0.825331 5.88667C1.14 3.19067 3.30533 1.07733 5.98933 0.777333C9.52593 0.38673 13.0889 0.291734 16.6413 0.493333C16.6922 0.496983 16.7409 0.515127 16.7817 0.545615C16.8226 0.576103 16.8538 0.617659 16.8718 0.66536C16.8898 0.713062 16.8937 0.76491 16.8831 0.814766C16.8725 0.864621 16.8478 0.910395 16.812 0.946666L15.488 2.26933C15.4362 2.32113 15.3744 2.36171 15.3062 2.38855C15.2381 2.41539 15.1652 2.42791 15.092 2.42533C12.1277 2.3238 9.15988 2.43743 6.212 2.76533C5.35058 2.86068 4.54647 3.24363 3.92954 3.85233C3.31261 4.46104 2.91889 5.25994 2.812 6.12C2.27714 10.6911 2.27714 15.3089 2.812 19.88C2.91889 20.7401 3.31261 21.539 3.92954 22.1477C4.54647 22.7564 5.35058 23.1393 6.212 23.2347C10.6853 23.7347 15.3147 23.7347 19.7893 23.2347C20.6507 23.1393 21.4549 22.7564 22.0718 22.1477C22.6887 21.539 23.0811 20.7401 23.188 19.88Z" fill="white"/>
</svg>
