<svg width="26" height="26" viewBox="0 0 26 26" fill="none" xmlns="http://www.w3.org/2000/svg">
<path d="M23.6667 7.66667H20.1111V9.44445H23.6667V11.2222H25.4444V9.44445C25.4444 8.97295 25.2571 8.52077 24.9237 8.18737C24.5904 7.85397 24.1382 7.66667 23.6667 7.66667Z" fill="white"/>
<path d="M23.6667 13H25.4444V18.3333H23.6667V13Z" fill="white"/>
<path d="M23.6667 23.6667H21.8889V25.4444H23.6667C24.1382 25.4444 24.5903 25.2571 24.9237 24.9237C25.2571 24.5903 25.4444 24.1382 25.4444 23.6667V20.1111H23.6667V23.6667Z" fill="white"/>
<path d="M18.3333 16.5556V2.33334C18.3333 1.86184 18.146 1.40965 17.8126 1.07626C17.4792 0.742858 17.027 0.555557 16.5555 0.555557H2.33332C1.86182 0.555557 1.40964 0.742858 1.07624 1.07626C0.742843 1.40965 0.555542 1.86184 0.555542 2.33334V16.5556C0.555542 17.0271 0.742843 17.4792 1.07624 17.8126C1.40964 18.146 1.86182 18.3333 2.33332 18.3333H16.5555C17.027 18.3333 17.4792 18.146 17.8126 17.8126C18.146 17.4792 18.3333 17.0271 18.3333 16.5556ZM2.33332 2.33334H16.5555V16.5556H2.33332V2.33334Z" fill="white"/>
<path d="M14.7778 23.6667H20.1111V25.4444H14.7778V23.6667Z" fill="white"/>
<path d="M9.44443 20.1111H7.66666V23.6667C7.66666 24.1382 7.85396 24.5903 8.18736 24.9237C8.52075 25.2571 8.97294 25.4444 9.44443 25.4444H13V23.6667H9.44443V20.1111Z" fill="white"/>
</svg>
