<svg width="18" height="18" viewBox="0 0 18 18" fill="#fff" xmlns="http://www.w3.org/2000/svg">
<path d="M6.72245 3.72642C7.73603 1.90881 8.24242 1 9 1C9.75758 1 10.264 1.90881 11.2775 3.72642L11.5399 4.19682C11.8279 4.71362 11.9719 4.97203 12.1959 5.14243C12.4199 5.31283 12.6999 5.37603 13.2599 5.50243L13.7687 5.61763C15.7366 6.06323 16.7198 6.28563 16.9542 7.03844C17.1878 7.79044 16.5174 8.57525 15.1759 10.1441L14.8287 10.5497C14.4479 10.9953 14.2567 11.2185 14.1711 11.4937C14.0855 11.7697 14.1143 12.0673 14.1719 12.6617L14.2247 13.2033C14.4271 15.2969 14.5287 16.3433 13.9159 16.8081C13.3031 17.2729 12.3815 16.8489 10.54 16.0009L10.0624 15.7817C9.53919 15.5401 9.27759 15.4201 9 15.4201C8.72241 15.4201 8.46081 15.5401 7.93762 15.7817L7.46084 16.0009C5.61848 16.8489 4.6969 17.2729 4.08492 16.8089C3.47133 16.3433 3.57293 15.2969 3.77532 13.2033L3.82812 12.6625C3.88572 12.0673 3.91452 11.7697 3.82812 11.4945C3.74332 11.2185 3.55213 10.9953 3.17134 10.5505L2.82415 10.1441C1.48258 8.57605 0.812192 7.79124 1.04579 7.03844C1.27938 6.28563 2.26416 6.06243 4.23211 5.61763L4.7409 5.50243C5.30009 5.37603 5.57928 5.31283 5.80408 5.14243C6.02887 4.97203 6.17207 4.71362 6.46006 4.19682L6.72245 3.72642Z" stroke="white"/>
</svg>
