<svg width="18" height="18" viewBox="0 0 18 18" fill="none" xmlns="http://www.w3.org/2000/svg">
<path d="M6.33333 1.44444V16.5556M16.5556 6.77778H1.44444M1 6.68889C1 4.69778 1 3.70222 1.38756 2.94133C1.72843 2.27234 2.27234 1.72843 2.94133 1.38756C3.70222 1 4.69778 1 6.68889 1H11.3111C13.3022 1 14.2978 1 15.0587 1.38756C15.7277 1.72843 16.2716 2.27234 16.6124 2.94133C17 3.70222 17 4.69778 17 6.68889V11.3111C17 13.3022 17 14.2978 16.6124 15.0587C16.2716 15.7277 15.7277 16.2716 15.0587 16.6124C14.2978 17 13.3022 17 11.3111 17H6.68889C4.69778 17 3.70222 17 2.94133 16.6124C2.27234 16.2716 1.72843 15.7277 1.38756 15.0587C1 14.2978 1 13.3022 1 11.3111V6.68889Z" stroke="#E2E8F0" stroke-linecap="round" stroke-linejoin="round"/>
</svg>
